<svg width="209" height="27" viewBox="0 0 209 27" fill="none" xmlns="http://www.w3.org/2000/svg">
<path d="M6.84766 21H2.55469L2.58203 18.0469H6.84766C8.00521 18.0469 8.97591 17.7917 9.75977 17.2812C10.5436 16.7617 11.1361 16.0189 11.5371 15.0527C11.9382 14.0775 12.1387 12.9108 12.1387 11.5527V10.5273C12.1387 9.47917 12.0247 8.55404 11.7969 7.75195C11.569 6.94987 11.2318 6.27539 10.7852 5.72852C10.3477 5.18164 9.80534 4.76693 9.1582 4.48438C8.51107 4.20182 7.76823 4.06055 6.92969 4.06055H2.47266V1.09375H6.92969C8.26042 1.09375 9.47266 1.31706 10.5664 1.76367C11.6693 2.21029 12.6217 2.85286 13.4238 3.69141C14.235 4.52083 14.8548 5.51432 15.2832 6.67188C15.7207 7.82943 15.9395 9.1237 15.9395 10.5547V11.5527C15.9395 12.9746 15.7207 14.2689 15.2832 15.4355C14.8548 16.5931 14.235 17.5866 13.4238 18.416C12.6217 19.2454 11.6647 19.8835 10.5527 20.3301C9.44076 20.7767 8.20573 21 6.84766 21ZM4.66016 1.09375V21H0.900391V1.09375H4.66016ZM25.5098 21.2734C24.3887 21.2734 23.3815 21.0911 22.4883 20.7266C21.5951 20.362 20.834 19.8561 20.2051 19.209C19.5853 18.5527 19.1068 17.7917 18.7695 16.9258C18.4414 16.0508 18.2773 15.112 18.2773 14.1094V13.5625C18.2773 12.4232 18.4414 11.3887 18.7695 10.459C19.0977 9.52018 19.5625 8.71354 20.1641 8.03906C20.7656 7.36458 21.4857 6.84505 22.3242 6.48047C23.1628 6.11589 24.0879 5.93359 25.0996 5.93359C26.1478 5.93359 27.0729 6.11133 27.875 6.4668C28.6771 6.81315 29.347 7.30534 29.8848 7.94336C30.4225 8.58138 30.8281 9.34701 31.1016 10.2402C31.375 11.1243 31.5117 12.1042 31.5117 13.1797V14.6973H19.918V12.209H27.957V11.9355C27.9388 11.3613 27.8294 10.8372 27.6289 10.3633C27.4284 9.88021 27.1185 9.4974 26.6992 9.21484C26.2799 8.92318 25.7376 8.77734 25.0723 8.77734C24.5345 8.77734 24.0651 8.89583 23.6641 9.13281C23.2721 9.36068 22.944 9.6888 22.6797 10.1172C22.4245 10.5365 22.2331 11.0378 22.1055 11.6211C21.9779 12.2044 21.9141 12.8516 21.9141 13.5625V14.1094C21.9141 14.7292 21.9961 15.3034 22.1602 15.832C22.3333 16.3607 22.584 16.821 22.9121 17.2129C23.2493 17.5957 23.6504 17.8965 24.1152 18.1152C24.5892 18.3249 25.127 18.4297 25.7285 18.4297C26.485 18.4297 27.1686 18.2839 27.7793 17.9922C28.3991 17.6914 28.9368 17.2493 29.3926 16.666L31.2109 18.5527C30.901 19.0085 30.4818 19.446 29.9531 19.8652C29.4336 20.2845 28.8047 20.6263 28.0664 20.8906C27.3281 21.1458 26.4759 21.2734 25.5098 21.2734ZM42.0664 16.9531C42.0664 16.6432 41.9844 16.3652 41.8203 16.1191C41.6562 15.873 41.3464 15.6497 40.8906 15.4492C40.444 15.2396 39.7878 15.0436 38.9219 14.8613C38.1562 14.6973 37.4499 14.4922 36.8027 14.2461C36.1556 14 35.5996 13.7038 35.1348 13.3574C34.6699 13.002 34.3053 12.5872 34.041 12.1133C33.7858 11.6302 33.6582 11.0742 33.6582 10.4453C33.6582 9.83464 33.7904 9.26042 34.0547 8.72266C34.319 8.17578 34.7018 7.69727 35.2031 7.28711C35.7044 6.86784 36.3151 6.53971 37.0352 6.30273C37.7552 6.05664 38.5664 5.93359 39.4688 5.93359C40.7266 5.93359 41.8066 6.13867 42.709 6.54883C43.6204 6.95898 44.3177 7.52409 44.8008 8.24414C45.2839 8.95508 45.5254 9.75716 45.5254 10.6504H41.916C41.916 10.2585 41.8249 9.90299 41.6426 9.58398C41.4694 9.26497 41.2005 9.00977 40.8359 8.81836C40.4714 8.61784 40.0111 8.51758 39.4551 8.51758C38.9538 8.51758 38.5299 8.59961 38.1836 8.76367C37.8464 8.92773 37.5911 9.14193 37.418 9.40625C37.2448 9.67057 37.1582 9.96224 37.1582 10.2812C37.1582 10.5182 37.2038 10.7324 37.2949 10.9238C37.3952 11.1061 37.5547 11.2747 37.7734 11.4297C37.9922 11.5846 38.2884 11.7259 38.6621 11.8535C39.0449 11.9811 39.5143 12.1042 40.0703 12.2227C41.1732 12.4414 42.1348 12.7331 42.9551 13.0977C43.7845 13.4531 44.4316 13.9271 44.8965 14.5195C45.3613 15.112 45.5938 15.8685 45.5938 16.7891C45.5938 17.4453 45.4525 18.0469 45.1699 18.5938C44.8874 19.1315 44.4772 19.6009 43.9395 20.002C43.4017 20.403 42.7591 20.7174 42.0117 20.9453C41.2643 21.1641 40.4212 21.2734 39.4824 21.2734C38.1243 21.2734 36.9759 21.0319 36.0371 20.5488C35.0983 20.0566 34.3874 19.4368 33.9043 18.6895C33.4212 17.9329 33.1797 17.1491 33.1797 16.3379H36.6387C36.666 16.9121 36.821 17.3724 37.1035 17.7188C37.3861 18.0651 37.7415 18.3158 38.1699 18.4707C38.6074 18.6165 39.0677 18.6895 39.5508 18.6895C40.0977 18.6895 40.5579 18.6165 40.9316 18.4707C41.3053 18.3158 41.5879 18.1107 41.7793 17.8555C41.9707 17.5911 42.0664 17.2904 42.0664 16.9531ZM51.9512 9.05078V26.6875H48.3281V6.20703H51.6777L51.9512 9.05078ZM61.4531 13.4531V13.7402C61.4531 14.8158 61.3255 15.8138 61.0703 16.7344C60.8242 17.6458 60.4596 18.4434 59.9766 19.127C59.4935 19.8014 58.8919 20.3301 58.1719 20.7129C57.4609 21.0866 56.6406 21.2734 55.7109 21.2734C54.7995 21.2734 54.0065 21.1003 53.332 20.7539C52.6576 20.3984 52.0879 19.8971 51.623 19.25C51.1582 18.6029 50.7845 17.8509 50.502 16.9941C50.2285 16.1283 50.0234 15.1849 49.8867 14.1641V13.248C50.0234 12.1634 50.2285 11.179 50.502 10.2949C50.7845 9.40169 51.1582 8.63151 51.623 7.98438C52.0879 7.32812 52.653 6.82227 53.3184 6.4668C53.9928 6.11133 54.7812 5.93359 55.6836 5.93359C56.6224 5.93359 57.4473 6.11133 58.1582 6.4668C58.8783 6.82227 59.4844 7.33268 59.9766 7.99805C60.4688 8.66341 60.8379 9.45638 61.084 10.377C61.3301 11.2975 61.4531 12.3229 61.4531 13.4531ZM57.8301 13.7402V13.4531C57.8301 12.7969 57.7708 12.1908 57.6523 11.6348C57.5339 11.0697 57.3516 10.5775 57.1055 10.1582C56.8594 9.72982 56.5404 9.39714 56.1484 9.16016C55.7565 8.92318 55.2826 8.80469 54.7266 8.80469C54.1706 8.80469 53.6921 8.89583 53.291 9.07812C52.89 9.26042 52.5618 9.52018 52.3066 9.85742C52.0514 10.1947 51.8509 10.5957 51.7051 11.0605C51.5684 11.5163 51.4772 12.0221 51.4316 12.5781V14.8477C51.5137 15.5221 51.6732 16.1283 51.9102 16.666C52.1471 17.2038 52.4935 17.6322 52.9492 17.9512C53.4141 18.2702 54.0156 18.4297 54.7539 18.4297C55.3099 18.4297 55.7839 18.3066 56.1758 18.0605C56.5677 17.8145 56.8867 17.4772 57.1328 17.0488C57.3789 16.6113 57.5566 16.11 57.666 15.5449C57.7754 14.9798 57.8301 14.3783 57.8301 13.7402ZM70.7363 21.2734C69.6152 21.2734 68.6081 21.0911 67.7148 20.7266C66.8216 20.362 66.0605 19.8561 65.4316 19.209C64.8118 18.5527 64.3333 17.7917 63.9961 16.9258C63.668 16.0508 63.5039 15.112 63.5039 14.1094V13.5625C63.5039 12.4232 63.668 11.3887 63.9961 10.459C64.3242 9.52018 64.7891 8.71354 65.3906 8.03906C65.9922 7.36458 66.7122 6.84505 67.5508 6.48047C68.3893 6.11589 69.3145 5.93359 70.3262 5.93359C71.3743 5.93359 72.2995 6.11133 73.1016 6.4668C73.9036 6.81315 74.5736 7.30534 75.1113 7.94336C75.6491 8.58138 76.0547 9.34701 76.3281 10.2402C76.6016 11.1243 76.7383 12.1042 76.7383 13.1797V14.6973H65.1445V12.209H73.1836V11.9355C73.1654 11.3613 73.056 10.8372 72.8555 10.3633C72.6549 9.88021 72.3451 9.4974 71.9258 9.21484C71.5065 8.92318 70.9642 8.77734 70.2988 8.77734C69.7611 8.77734 69.2917 8.89583 68.8906 9.13281C68.4987 9.36068 68.1706 9.6888 67.9062 10.1172C67.651 10.5365 67.4596 11.0378 67.332 11.6211C67.2044 12.2044 67.1406 12.8516 67.1406 13.5625V14.1094C67.1406 14.7292 67.2227 15.3034 67.3867 15.832C67.5599 16.3607 67.8105 16.821 68.1387 17.2129C68.4759 17.5957 68.877 17.8965 69.3418 18.1152C69.8158 18.3249 70.3535 18.4297 70.9551 18.4297C71.7116 18.4297 72.3952 18.2839 73.0059 17.9922C73.6257 17.6914 74.1634 17.2493 74.6191 16.666L76.4375 18.5527C76.1276 19.0085 75.7083 19.446 75.1797 19.8652C74.6602 20.2845 74.0312 20.6263 73.293 20.8906C72.5547 21.1458 71.7025 21.2734 70.7363 21.2734ZM82.7676 9.22852V21H79.1582V6.20703H82.5762L82.7676 9.22852ZM87.2656 6.11133L87.2109 9.47461C87.0104 9.43815 86.7826 9.41081 86.5273 9.39258C86.2812 9.37435 86.0488 9.36523 85.8301 9.36523C85.2741 9.36523 84.7865 9.44271 84.3672 9.59766C83.9479 9.74349 83.597 9.95768 83.3145 10.2402C83.041 10.5228 82.8314 10.8691 82.6855 11.2793C82.5397 11.6803 82.4577 12.1361 82.4395 12.6465L81.6602 12.5508C81.6602 11.612 81.7559 10.7415 81.9473 9.93945C82.1387 9.13737 82.4167 8.43555 82.7812 7.83398C83.1458 7.23242 83.6016 6.76758 84.1484 6.43945C84.7044 6.10221 85.3424 5.93359 86.0625 5.93359C86.263 5.93359 86.4772 5.95182 86.7051 5.98828C86.9421 6.01562 87.1289 6.05664 87.2656 6.11133ZM97.8477 17.8555V0H101.484V21H98.2031L97.8477 17.8555ZM88.3457 13.7812V13.4941C88.3457 12.3639 88.4733 11.3385 88.7285 10.418C88.9928 9.48828 89.3757 8.69076 89.877 8.02539C90.3783 7.36003 90.9844 6.84505 91.6953 6.48047C92.4154 6.11589 93.2311 5.93359 94.1426 5.93359C95.0267 5.93359 95.7969 6.11133 96.4531 6.4668C97.1185 6.82227 97.6836 7.32812 98.1484 7.98438C98.6224 8.64062 99.0007 9.41992 99.2832 10.3223C99.5658 11.2155 99.7708 12.1999 99.8984 13.2754V14.0547C99.7708 15.1029 99.5658 16.0645 99.2832 16.9395C99.0007 17.8145 98.6224 18.5801 98.1484 19.2363C97.6836 19.8835 97.1185 20.3848 96.4531 20.7402C95.7878 21.0957 95.0085 21.2734 94.1152 21.2734C93.2129 21.2734 92.4017 21.0866 91.6816 20.7129C90.9707 20.3392 90.3646 19.8151 89.8633 19.1406C89.3711 18.4661 88.9928 17.6732 88.7285 16.7617C88.4733 15.8503 88.3457 14.8568 88.3457 13.7812ZM91.9688 13.4941V13.7812C91.9688 14.4193 92.0234 15.0163 92.1328 15.5723C92.2422 16.1283 92.4199 16.6204 92.666 17.0488C92.9121 17.4681 93.2266 17.7962 93.6094 18.0332C94.0013 18.2702 94.4753 18.3887 95.0312 18.3887C95.7422 18.3887 96.3255 18.2337 96.7812 17.9238C97.2461 17.6048 97.6061 17.1719 97.8613 16.625C98.1165 16.069 98.2806 15.4447 98.3535 14.752V12.6055C98.3171 12.0586 98.2214 11.5527 98.0664 11.0879C97.9206 10.623 97.7109 10.222 97.4375 9.88477C97.1732 9.54753 96.8451 9.2832 96.4531 9.0918C96.0612 8.90039 95.5964 8.80469 95.0586 8.80469C94.5026 8.80469 94.0286 8.92773 93.6367 9.17383C93.2448 9.41081 92.9258 9.74349 92.6797 10.1719C92.4336 10.6003 92.2513 11.097 92.1328 11.6621C92.0234 12.2272 91.9688 12.8379 91.9688 13.4941ZM108.648 6.20703V21H105.025V6.20703H108.648ZM105.094 4.32031L107.773 0.164062H111.766L108.033 4.32031H105.094ZM118.314 18.4297C118.825 18.4297 119.281 18.3294 119.682 18.1289C120.083 17.9284 120.402 17.6458 120.639 17.2812C120.885 16.9167 121.017 16.4928 121.035 16.0098H124.439C124.421 17.0124 124.139 17.9102 123.592 18.7031C123.045 19.4961 122.316 20.125 121.404 20.5898C120.502 21.0456 119.49 21.2734 118.369 21.2734C117.23 21.2734 116.236 21.082 115.389 20.6992C114.541 20.3164 113.835 19.7832 113.27 19.0996C112.714 18.416 112.294 17.623 112.012 16.7207C111.738 15.8184 111.602 14.8522 111.602 13.8223V13.3848C111.602 12.3548 111.738 11.3887 112.012 10.4863C112.294 9.58398 112.714 8.79102 113.27 8.10742C113.835 7.42383 114.541 6.89062 115.389 6.50781C116.236 6.125 117.225 5.93359 118.355 5.93359C119.549 5.93359 120.598 6.16602 121.5 6.63086C122.411 7.0957 123.122 7.75195 123.633 8.59961C124.152 9.44727 124.421 10.4453 124.439 11.5938H121.035C121.017 11.0651 120.898 10.5911 120.68 10.1719C120.461 9.7526 120.151 9.41536 119.75 9.16016C119.349 8.90495 118.861 8.77734 118.287 8.77734C117.676 8.77734 117.166 8.90495 116.756 9.16016C116.355 9.41536 116.04 9.76628 115.812 10.2129C115.594 10.6504 115.439 11.1426 115.348 11.6895C115.266 12.2272 115.225 12.7923 115.225 13.3848V13.8223C115.225 14.4238 115.266 14.998 115.348 15.5449C115.439 16.0918 115.594 16.584 115.812 17.0215C116.04 17.4499 116.355 17.7917 116.756 18.0469C117.166 18.3021 117.686 18.4297 118.314 18.4297ZM130.674 6.20703V21H127.051V6.20703H130.674ZM126.805 2.33789C126.805 1.80013 126.987 1.35352 127.352 0.998047C127.725 0.642578 128.227 0.464844 128.855 0.464844C129.484 0.464844 129.981 0.642578 130.346 0.998047C130.719 1.35352 130.906 1.80013 130.906 2.33789C130.906 2.86654 130.719 3.30859 130.346 3.66406C129.981 4.01953 129.484 4.19727 128.855 4.19727C128.227 4.19727 127.725 4.01953 127.352 3.66406C126.987 3.30859 126.805 2.86654 126.805 2.33789ZM133.477 13.7539V13.4668C133.477 12.3822 133.632 11.3841 133.941 10.4727C134.251 9.55208 134.702 8.75456 135.295 8.08008C135.887 7.4056 136.612 6.88151 137.469 6.50781C138.326 6.125 139.301 5.93359 140.395 5.93359C141.507 5.93359 142.491 6.125 143.348 6.50781C144.214 6.88151 144.943 7.4056 145.535 8.08008C146.128 8.75456 146.579 9.55208 146.889 10.4727C147.199 11.3841 147.354 12.3822 147.354 13.4668V13.7539C147.354 14.8294 147.199 15.8275 146.889 16.748C146.579 17.6595 146.128 18.457 145.535 19.1406C144.943 19.8151 144.218 20.3392 143.361 20.7129C142.505 21.0866 141.525 21.2734 140.422 21.2734C139.328 21.2734 138.348 21.0866 137.482 20.7129C136.617 20.3392 135.887 19.8151 135.295 19.1406C134.702 18.457 134.251 17.6595 133.941 16.748C133.632 15.8275 133.477 14.8294 133.477 13.7539ZM137.086 13.4668V13.7539C137.086 14.401 137.15 15.0072 137.277 15.5723C137.405 16.1374 137.601 16.6341 137.865 17.0625C138.13 17.4909 138.471 17.8281 138.891 18.0742C139.319 18.3112 139.829 18.4297 140.422 18.4297C141.005 18.4297 141.507 18.3112 141.926 18.0742C142.345 17.8281 142.687 17.4909 142.951 17.0625C143.225 16.6341 143.425 16.1374 143.553 15.5723C143.68 15.0072 143.744 14.401 143.744 13.7539V13.4668C143.744 12.8288 143.68 12.2318 143.553 11.6758C143.425 11.1107 143.225 10.6139 142.951 10.1855C142.687 9.74805 142.34 9.40625 141.912 9.16016C141.493 8.90495 140.987 8.77734 140.395 8.77734C139.811 8.77734 139.31 8.90495 138.891 9.16016C138.471 9.40625 138.13 9.74805 137.865 10.1855C137.601 10.6139 137.405 11.1107 137.277 11.6758C137.15 12.2318 137.086 12.8288 137.086 13.4668ZM168.545 18.1562V21H157.416V18.1562H168.545ZM168.285 8.36719L158.77 21H156.391V18.7715L165.852 6.20703H168.285V8.36719ZM166.959 6.20703V9.06445H156.582V6.20703H166.959ZM177.541 21.2734C176.42 21.2734 175.413 21.0911 174.52 20.7266C173.626 20.362 172.865 19.8561 172.236 19.209C171.617 18.5527 171.138 17.7917 170.801 16.9258C170.473 16.0508 170.309 15.112 170.309 14.1094V13.5625C170.309 12.4232 170.473 11.3887 170.801 10.459C171.129 9.52018 171.594 8.71354 172.195 8.03906C172.797 7.36458 173.517 6.84505 174.355 6.48047C175.194 6.11589 176.119 5.93359 177.131 5.93359C178.179 5.93359 179.104 6.11133 179.906 6.4668C180.708 6.81315 181.378 7.30534 181.916 7.94336C182.454 8.58138 182.859 9.34701 183.133 10.2402C183.406 11.1243 183.543 12.1042 183.543 13.1797V14.6973H171.949V12.209H179.988V11.9355C179.97 11.3613 179.861 10.8372 179.66 10.3633C179.46 9.88021 179.15 9.4974 178.73 9.21484C178.311 8.92318 177.769 8.77734 177.104 8.77734C176.566 8.77734 176.096 8.89583 175.695 9.13281C175.303 9.36068 174.975 9.6888 174.711 10.1172C174.456 10.5365 174.264 11.0378 174.137 11.6211C174.009 12.2044 173.945 12.8516 173.945 13.5625V14.1094C173.945 14.7292 174.027 15.3034 174.191 15.832C174.365 16.3607 174.615 16.821 174.943 17.2129C175.281 17.5957 175.682 17.8965 176.146 18.1152C176.62 18.3249 177.158 18.4297 177.76 18.4297C178.516 18.4297 179.2 18.2839 179.811 17.9922C180.43 17.6914 180.968 17.2493 181.424 16.666L183.242 18.5527C182.932 19.0085 182.513 19.446 181.984 19.8652C181.465 20.2845 180.836 20.6263 180.098 20.8906C179.359 21.1458 178.507 21.2734 177.541 21.2734ZM189.572 9.22852V21H185.963V6.20703H189.381L189.572 9.22852ZM194.07 6.11133L194.016 9.47461C193.815 9.43815 193.587 9.41081 193.332 9.39258C193.086 9.37435 192.854 9.36523 192.635 9.36523C192.079 9.36523 191.591 9.44271 191.172 9.59766C190.753 9.74349 190.402 9.95768 190.119 10.2402C189.846 10.5228 189.636 10.8691 189.49 11.2793C189.344 11.6803 189.262 12.1361 189.244 12.6465L188.465 12.5508C188.465 11.612 188.561 10.7415 188.752 9.93945C188.943 9.13737 189.221 8.43555 189.586 7.83398C189.951 7.23242 190.406 6.76758 190.953 6.43945C191.509 6.10221 192.147 5.93359 192.867 5.93359C193.068 5.93359 193.282 5.95182 193.51 5.98828C193.747 6.01562 193.934 6.05664 194.07 6.11133ZM195.027 13.7539V13.4668C195.027 12.3822 195.182 11.3841 195.492 10.4727C195.802 9.55208 196.253 8.75456 196.846 8.08008C197.438 7.4056 198.163 6.88151 199.02 6.50781C199.876 6.125 200.852 5.93359 201.945 5.93359C203.057 5.93359 204.042 6.125 204.898 6.50781C205.764 6.88151 206.493 7.4056 207.086 8.08008C207.678 8.75456 208.13 9.55208 208.439 10.4727C208.749 11.3841 208.904 12.3822 208.904 13.4668V13.7539C208.904 14.8294 208.749 15.8275 208.439 16.748C208.13 17.6595 207.678 18.457 207.086 19.1406C206.493 19.8151 205.769 20.3392 204.912 20.7129C204.055 21.0866 203.076 21.2734 201.973 21.2734C200.879 21.2734 199.899 21.0866 199.033 20.7129C198.167 20.3392 197.438 19.8151 196.846 19.1406C196.253 18.457 195.802 17.6595 195.492 16.748C195.182 15.8275 195.027 14.8294 195.027 13.7539ZM198.637 13.4668V13.7539C198.637 14.401 198.701 15.0072 198.828 15.5723C198.956 16.1374 199.152 16.6341 199.416 17.0625C199.68 17.4909 200.022 17.8281 200.441 18.0742C200.87 18.3112 201.38 18.4297 201.973 18.4297C202.556 18.4297 203.057 18.3112 203.477 18.0742C203.896 17.8281 204.238 17.4909 204.502 17.0625C204.775 16.6341 204.976 16.1374 205.104 15.5723C205.231 15.0072 205.295 14.401 205.295 13.7539V13.4668C205.295 12.8288 205.231 12.2318 205.104 11.6758C204.976 11.1107 204.775 10.6139 204.502 10.1855C204.238 9.74805 203.891 9.40625 203.463 9.16016C203.044 8.90495 202.538 8.77734 201.945 8.77734C201.362 8.77734 200.861 8.90495 200.441 9.16016C200.022 9.40625 199.68 9.74805 199.416 10.1855C199.152 10.6139 198.956 11.1107 198.828 11.6758C198.701 12.2318 198.637 12.8288 198.637 13.4668Z" fill="white"/>
</svg>
